#!OML:ASF H:\LiuWeirdWalks\Patient Classification 1\Patient 1\Session 1\male.ASF
:FULLY-SPECIFIED
:DEGREES
475
root 0.192453 18.0758 -30.1837 7.41806 7.62838 8.14488
lowerback 5.64726 -0.987912 8.11623
upperback -0.627106 -0.255866 11.468
thorax -3.85958 -0.144607 7.64024
lowerneck -28.4252 1.86592 13.4576
upperneck 27.699 3.13602 -19.6969
head 15.032 0.00249821 -10.2948
rclavicle -1.59028e-015 1.59028e-014
rhumerus -28.2783 -16.0315 -48.5894
rradius 32.8164
rwrist -13.72
rhand -17.4604 -4.06427
rfingers 7.12502
rthumb 8.79109 -33.8612
lclavicle -1.59028e-015 1.59028e-014
lhumerus -37.2037 -12.8897 99.6452
lradius 39.0303
lwrist 3.5691
lhand -5.68079 -4.32065
lfingers 7.12502
lthumb 20.1392 24.6555
rfemur -12.3474 -0.145475 8.20994
rtibia 30.8829
rfoot -14.7737 -24.0624
rtoes -3.98982
lfemur -5.77892 0.820448 -26.7579
ltibia 12.3879
lfoot -5.38404 9.57139
ltoes -17.3014
476
root 0.193173 18.0742 -30.1789 7.43561 7.72168 8.27662
lowerback 5.68817 -0.903478 8.27555
upperback -0.663948 -0.116929 11.5037
thorax -3.93363 -0.0783756 7.58032
lowerneck -28.3857 1.68761 13.3634
upperneck 27.7297 2.86042 -19.5229
head 14.9599 -0.105161 -10.2407
rclavicle 2.38542e-015 -7.63333e-014
rhumerus -28.5273 -16.4069 -48.2236
rradius 32.9839
rwrist -13.8678
rhand -17.5079 -4.14457
rfingers 7.12502
rthumb 8.74527 -33.9434
lclavicle 2.38542e-015 -7.63333e-014
lhumerus -37.3482 -13.6625 99.9
lradius 39.3509
lwrist 3.54767
lhand -5.59618 -4.33413
lfingers 7.12502
lthumb 20.2205 24.6334
rfemur -12.3249 -0.126849 8.08034
rtibia 30.9552
rfoot -14.8359 -24.1834
rtoes -3.99531
lfemur -5.72308 0.946453 -26.8827
ltibia 12.3043
lfoot -5.3969 9.31751
ltoes -17.0934
477
root 0.194043 18.0724 -30.1736 7.46118 7.81166 8.41831
lowerback 5.70253 -0.832877 8.4737
upperback -0.690412 -0.000241985 11.5221
thorax -3.97941 -0.0243318 7.47973
lowerneck -28.4619 1.56716 13.314
upperneck 27.8512 2.65234 -19.3627
head 14.9733 -0.180807 -10.2091
rclavicle 6.36111e-015 -9.54166e-015
rhumerus -28.747 -16.7827 -47.8961
rradius 33.1354
rwrist -14.0038
rhand -17.5944 -4.27587
rfingers 7.12502
rthumb 8.66172 -34.0782
lclavicle 6.36111e-015 -9.54166e-015
lhumerus -37.4665 -14.3557 100.109
lradius 39.6659
lwrist 3.50785
lhand -5.55574 -4.35989
lfingers 7.12502
lthumb 20.2594 24.6035
rfemur -12.3095 -0.131291 7.93629
rtibia 31.0285
rfoot -14.8959 -24.2802
rtoes -4.00292
lfemur -5.66893 1.03941 -27.0215
ltibia 12.2188
lfoot -5.39855 9.10082
ltoes -16.9579
478
root 0.194598 18.0705 -30.1681 7.49018 7.89864 8.55909
lowerback 5.70046 -0.77107 8.66418
upperback -0.698239 0.0985962 11.5407
thorax -3.99404 0.0211605 7.38417
lowerneck -28.5709 1.48273 13.3015
upperneck 27.9593 2.47953 -19.2157
head 14.9981 -0.239304 -10.1851
rclavicle -6.36111e-015 1.04958e-013
rhumerus -28.9245 -17.1413 -47.6153
rradius 33.2835
rwrist -14.1824
rhand -17.7184 -4.44599
rfingers 7.12502
rthumb 8.54208 -34.2532
lclavicle -6.36111e-015 1.04958e-013
lhumerus -37.5334 -14.9817 100.277
lradius 39.9665
lwrist 3.45939
lhand -5.60525 -4.40797
lfingers 7.12502
lthumb 20.2118 24.5605
rfemur -12.2975 -0.140851 7.79325
rtibia 31.0984
rfoot -14.9568 -24.3678
rtoes -4.00394
lfemur -5.61927 1.09956 -27.1609
ltibia 12.1382
lfoot -5.38782 8.92529
ltoes -16.8233
479
root 0.19467 18.0686 -30.1621 7.5194 7.98432 8.69704
lowerback 5.67035 -0.745405 8.82997
upperback -0.683995 0.140843 11.5922
thorax -3.96535 0.0400873 7.34341
lowerneck -28.6916 1.48639 13.3528
upperneck 28.0337 2.43347 -19.1573
head 15.0454 -0.247215 -10.1911
rclavicle 2.3059e-014 -7.63333e-014
rhumerus -28.9777 -17.4212 -47.38
rradius 33.3923
rwrist -14.3577
rhand -17.8407 -4.60134
rfingers 7.12502
rthumb 8.42405 -34.4133
lclavicle 2.3059e-014 -7.63333e-014
lhumerus -37.5435 -15.4136 100.41
lradius 40.2672
lwrist 3.45405
lhand -5.67143 -4.43867
lfingers 7.12502
lthumb 20.1482 24.5365
rfemur -12.2824 -0.155927 7.6551
rtibia 31.1632
rfoot -15.0161 -24.4482
rtoes -4.00069
lfemur -5.57086 1.14259 -27.2971
ltibia 12.0639
lfoot -5.37244 8.77398
ltoes -16.4166
480
root 0.193795 18.067 -30.1554 7.53533 8.05553 8.80677
lowerback 5.6438 -0.77169 8.95043
upperback -0.658398 0.112773 11.717
thorax -3.9228 0.02653 7.41716
lowerneck -28.7304 1.5989 13.4663
upperneck 28.0282 2.56776 -19.2321
head 15.0885 -0.185709 -10.2279
rclavicle 3.97569e-015 2.22639e-014
rhumerus -28.8688 -17.5314 -47.18
rradius 33.4537
rwrist -14.5269
rhand -17.9348 -4.72587
rfingers 7.12502
rthumb 8.33322 -34.5415
lclavicle 3.97569e-015 2.22639e-014
lhumerus -37.5256 -15.5633 100.537
lradius 40.5687
lwrist 3.4537
lhand -5.77783 -4.45297
lfingers 7.12502
lthumb 20.0459 24.533
rfemur -12.2564 -0.14627 7.55285
rtibia 31.219
rfoot -15.0748 -24.5349
rtoes -3.99009
lfemur -5.51582 1.17748 -27.4003
ltibia 12.0005
lfoot -5.36081 8.65324
ltoes -16.0654
481
root 0.191596 18.0657 -30.1483 7.54209 8.11912 8.89454
lowerback 5.61714 -0.871577 9.00113
upperback -0.610549 -0.0172014 11.9427
thorax -3.85041 -0.0341034 7.65304
lowerneck -28.7241 1.85339 13.6134
upperneck 27.9616 2.95083 -19.4572
head 15.1629 -0.0307986 -10.2911
rclavicle -3.4191e-014 6.36111e-015
rhumerus -28.5117 -17.4127 -47.024
rradius 33.4554
rwrist -14.6784
rhand -17.9888 -4.78896
rfingers 7.12502
rthumb 8.28118 -34.6066
lclavicle -3.4191e-014 6.36111e-015
lhumerus -37.443 -15.3263 100.657
lradius 40.8686
lwrist 3.4375
lhand -5.91527 -4.48986
lfingers 7.12502
lthumb 19.9138 24.5098
rfemur -12.2211 -0.110212 7.48233
rtibia 31.265
rfoot -15.1356 -24.6364
rtoes -3.96739
lfemur -5.46099 1.22006 -27.4747
ltibia 11.9503
lfoot -5.35736 8.53959
ltoes -15.6993
482
root 0.187937 18.0647 -30.1407 7.5445 8.17721 8.9565
lowerback 5.61563 -0.973925 9.00931
upperback -0.598759 -0.142445 12.1932
thorax -3.83025 -0.0918094 7.94379
lowerneck -28.5951 2.06392 13.7165
upperneck 27.8985 3.29891 -19.6648
head 15.2036 0.11004 -10.3373
rclavicle 9.54166e-015 -1.08139e-013
rhumerus -28.204 -17.2214 -46.8458
rradius 33.4392
rwrist -14.8097
rhand -17.9877 -4.78741
rfingers 7.12502
rthumb 8.28224 -34.6051
lclavicle 9.54166e-015 -1.08139e-013
lhumerus -37.4287 -15.0056 100.794
lradius 41.1799
lwrist 3.4341
lhand -6.04854 -4.49759
lfingers 7.12502
lthumb 19.7857 24.5154
rfemur -12.182 -0.0453514 7.44875
rtibia 31.3
rfoot -15.1935 -24.7591
rtoes -3.93997
lfemur -5.41523 1.25994 -27.5155
ltibia 11.9179
lfoot -5.36138 8.43942
ltoes -15.4596
483
root 0.183417 18.0638 -30.1326 7.54502 8.22139 9.00122
lowerback 5.62841 -1.08947 8.9903
upperback -0.597403 -0.2818 12.4729
thorax -3.82703 -0.155757 8.28692
lowerneck -28.4845 2.25455 13.7413
upperneck 27.9269 3.65897 -19.857
head 15.2934 0.251019 -10.3722
rclavicle -7.95139e-016 1.17681e-013
rhumerus -27.8563 -16.9675 -46.6681
rradius 33.3855
rwrist -14.9013
rhand -17.9664 -4.76492
rfingers 7.12502
rthumb 8.30272 -34.5818
lclavicle -7.95139e-016 1.17681e-013
lhumerus -37.4266 -14.5553 100.934
lradius 41.4885
lwrist 3.41807
lhand -6.17146 -4.5265
lfingers 7.12502
lthumb 19.6675 24.4986
rfemur -12.144 0.0349311 7.43721
rtibia 31.3277
rfoot -15.2489 -24.884
rtoes -3.91508
lfemur -5.37605 1.29733 -27.5353
ltibia 11.8985
lfoot -5.37278 8.35901
ltoes -15.3142
484
root 0.178187 18.0633 -30.1249 7.54758 8.26377 9.02712
lowerback 5.65557 -1.11237 9.02376
upperback -0.608127 -0.293893 12.6558
thorax -3.85419 -0.159267 8.48028
lowerneck -28.5064 2.21452 13.5826
upperneck 28.1197 3.66234 -19.7607
head 15.3806 0.250291 -10.3208
rclavicle 7.95139e-015 -1.145e-013
rhumerus -27.7672 -16.9977 -46.4629
rradius 33.3461
rwrist -14.9539
rhand -17.9275 -4.7199
rfingers 7.12502
rthumb 8.34034 -34.5352
lclavicle 7.95139e-015 -1.145e-013
lhumerus -37.4472 -14.4652 101.044
lradius 41.7971
lwrist 3.47601
lhand -6.28141 -4.56833
lfingers 7.12502
lthumb 19.5618 24.4676
rfemur -12.1118 0.11761 7.44898
rtibia 31.3491
rfoot -15.3009 -25.0101
rtoes -3.88863
lfemur -5.35088 1.32208 -27.5324
ltibia 11.892
lfoot -5.3884 8.29578
ltoes -15.199
485
root 0.172828 18.0626 -30.1169 7.55068 8.30948 9.06167
lowerback 5.67633 -1.00399 9.18874
upperback -0.640082 -0.12782 12.6534
thorax -3.91492 -0.0802493 8.37076
lowerneck -28.7048 1.89696 13.2966
upperneck 28.525 3.19447 -19.3342
head 15.47 0.070784 -10.2033
rclavicle -1.66979e-014 -5.08889e-014
rhumerus -28.1014 -17.4798 -46.2253
rradius 33.3314
rwrist -14.912
rhand -17.8617 -4.62761
rfingers 7.12502
rthumb 8.4038 -34.4404
lclavicle -1.66979e-014 -5.08889e-014
lhumerus -37.5246 -14.9674 101.094
lradius 42.0909
lwrist 3.60427
lhand -6.38759 -4.68007
lfingers 7.12502
lthumb 19.4597 24.3662
rfemur -12.0761 0.177349 7.44979
rtibia 31.3695
rfoot -15.3517 -25.1189
rtoes -3.86867
lfemur -5.3247 1.33923 -27.5384
ltibia 11.8881
lfoot -5.40687 8.23703
ltoes -15.053
486
root 0.166967 18.0618 -30.1086 7.55293 8.36938 9.09097
lowerback 5.67689 -0.909938 9.35451
upperback -0.663825 0.0142748 12.6517
thorax -3.95255 -0.0131557 8.2628
lowerneck -28.8643 1.59236 13.03
upperneck 28.8766 2.74078 -18.9282
head 15.5363 -0.101102 -10.0885
rclavicle -2.54444e-014 -9.54166e-015
rhumerus -28.4191 -17.9127 -46.0215
rradius 33.3203
rwrist -14.8738
rhand -17.8122 -4.55563
rfingers 7.12502
rthumb 8.4516 -34.3665
lclavicle -2.54444e-014 -9.54166e-015
lhumerus -37.5701 -15.4277 101.124
lradius 42.3746
lwrist 3.76394
lhand -6.47443 -4.76436
lfingers 7.12502
lthumb 19.3762 24.2903
rfemur -12.0341 0.222749 7.4597
rtibia 31.3893
rfoot -15.4102 -25.2259
rtoes -3.84178
lfemur -5.29653 1.34965 -27.5354
ltibia 11.8827
lfoot -5.42668 8.17214
ltoes -14.9457
487
root 0.160814 18.0607 -30.1002 7.55944 8.45081 9.14958
lowerback 5.65219 -0.828225 9.49808
upperback -0.677406 0.131363 12.6363
thorax -3.96199 0.0419298 8.15282
lowerneck -28.9691 1.30455 12.8095
upperneck 29.1176 2.29634 -18.56
head 15.5478 -0.268442 -9.98178
rclavicle -9.54166e-015 -1.24042e-013
rhumerus -28.709 -18.3545 -45.8464
rradius 33.2857
rwrist -14.7866
rhand -17.7429 -4.45861
rfingers 7.12502
rthumb 8.51845 -34.2668
lclavicle -9.54166e-015 -1.24042e-013
lhumerus -37.5754 -15.8754 101.13
lradius 42.6474
lwrist 3.9373
lhand -6.54742 -4.81439
lfingers 7.12502
lthumb 19.306 24.2473
rfemur -11.984 0.226217 7.43777
rtibia 31.4138
rfoot -15.4774 -25.3134
rtoes -3.81511
lfemur -5.26081 1.35463 -27.5617
ltibia 11.867
lfoot -5.43786 8.08918
ltoes -14.5317
488
root 0.154054 18.0594 -30.0909 7.55804 8.53883 9.21056
lowerback 5.62896 -0.787856 9.60886
upperback -0.680872 0.19141 12.6587
thorax -3.95727 0.0702075 8.10981
lowerneck -28.9567 1.13525 12.7235
upperneck 29.1471 2.01211 -18.3503
head 15.4826 -0.373289 -9.91537
rclavicle 1.35174e-014 -1.27222e-014
rhumerus -28.887 -18.6742 -45.7042
rradius 33.2302
rwrist -14.6927
rhand -17.674 -4.37363
rfingers 7.12502
rthumb 8.58499 -34.1791
lclavicle 1.35174e-014 -1.27222e-014
lhumerus -37.549 -16.1572 101.136
lradius 42.9196
lwrist 4.10807
lhand -6.60885 -4.81984
lfingers 7.12502
lthumb 19.247 24.2477
rfemur -11.9215 0.223309 7.41613
rtibia 31.4432
rfoot -15.5536 -25.3984
rtoes -3.79342
lfemur -5.20681 1.35559 -27.5872
ltibia 11.839
lfoot -5.44441 8.00504
ltoes -14.2518
